<svg width="537" height="534" viewBox="0 0 537 534" fill="none" xmlns="http://www.w3.org/2000/svg">
<path d="M267.994 21.0752L228.628 279.691L259.806 266.539L260.5 266.246V459.557L259.947 459.497L222.447 455.497L222 455.449V272.5H100.623C106.416 298.762 112.713 318.125 122.313 335.386C131.987 352.778 145.031 368.066 164.342 386.135L164.697 386.468L164.374 386.832L140.374 413.832L139.997 414.257L139.623 413.829C112.083 382.286 94.6045 357.606 83.8613 332.852C73.1142 308.088 69.122 283.282 68.5 251.51L68.499 251.478L68.5029 251.445C80.7102 140.804 150.553 66.6636 246.193 57.0293L267.066 20.751L267.994 21.0752ZM222.367 96.5186C160.695 113.566 112.661 159.108 102.505 232.932L102.427 233.5H223V96.3428L222.367 96.5186Z" fill="#0040a1"/>
<path d="M452.5 322.001H416.5C395.5 368.501 355 404.001 310.5 414.001V273.001H420.5V236.501H314L310.5 100.501C346.5 107.501 392.5 138.001 413 181.001H449C413 100.501 345.621 58.8348 273 59.0007V236.501L306.5 223.501L268 481.501L283.5 460.001C380.5 446.501 434.5 379.501 452.5 322.001Z" fill="#262626" stroke="#343434"/>
</svg>
